<svg width="105" height="40" viewBox="0 0 105 40" fill="none" xmlns="http://www.w3.org/2000/svg">
<path d="M55.75 19.5156V20.7422H49.5938V19.5156H55.75ZM49.8281 14.625V26H48.3203V14.625H49.8281ZM57.0625 14.625V26H55.5625V14.625H57.0625ZM58.8206 21.8672V21.6875C58.8206 21.0781 58.9092 20.513 59.0863 19.9922C59.2633 19.4661 59.5185 19.0104 59.8519 18.625C60.1852 18.2344 60.5889 17.9323 61.0628 17.7188C61.5368 17.5 62.068 17.3906 62.6566 17.3906C63.2503 17.3906 63.7842 17.5 64.2581 17.7188C64.7373 17.9323 65.1435 18.2344 65.4769 18.625C65.8154 19.0104 66.0732 19.4661 66.2503 19.9922C66.4274 20.513 66.5159 21.0781 66.5159 21.6875V21.8672C66.5159 22.4766 66.4274 23.0417 66.2503 23.5625C66.0732 24.0833 65.8154 24.5391 65.4769 24.9297C65.1435 25.3151 64.7399 25.6172 64.2659 25.8359C63.7972 26.0495 63.2659 26.1562 62.6722 26.1562C62.0784 26.1562 61.5446 26.0495 61.0706 25.8359C60.5967 25.6172 60.1904 25.3151 59.8519 24.9297C59.5185 24.5391 59.2633 24.0833 59.0863 23.5625C58.9092 23.0417 58.8206 22.4766 58.8206 21.8672ZM60.2659 21.6875V21.8672C60.2659 22.2891 60.3154 22.6875 60.4144 23.0625C60.5133 23.4323 60.6618 23.7604 60.8597 24.0469C61.0628 24.3333 61.3154 24.5599 61.6175 24.7266C61.9196 24.888 62.2711 24.9688 62.6722 24.9688C63.068 24.9688 63.4144 24.888 63.7113 24.7266C64.0133 24.5599 64.2633 24.3333 64.4613 24.0469C64.6592 23.7604 64.8076 23.4323 64.9066 23.0625C65.0107 22.6875 65.0628 22.2891 65.0628 21.8672V21.6875C65.0628 21.2708 65.0107 20.8776 64.9066 20.5078C64.8076 20.1328 64.6566 19.8021 64.4534 19.5156C64.2555 19.224 64.0055 18.9948 63.7034 18.8281C63.4066 18.6615 63.0576 18.5781 62.6566 18.5781C62.2607 18.5781 61.9118 18.6615 61.6097 18.8281C61.3128 18.9948 61.0628 19.224 60.8597 19.5156C60.6618 19.8021 60.5133 20.1328 60.4144 20.5078C60.3154 20.8776 60.2659 21.2708 60.2659 21.6875ZM69.4459 19.2266V26H67.9928V17.5469H69.3678L69.4459 19.2266ZM69.1491 21.4531L68.4772 21.4297C68.4824 20.8516 68.5579 20.3177 68.7038 19.8281C68.8496 19.3333 69.0657 18.9036 69.3522 18.5391C69.6386 18.1745 69.9954 17.8932 70.4225 17.6953C70.8496 17.4922 71.3444 17.3906 71.9069 17.3906C72.3027 17.3906 72.6673 17.4479 73.0006 17.5625C73.334 17.6719 73.623 17.8464 73.8678 18.0859C74.1126 18.3255 74.3027 18.6328 74.4381 19.0078C74.5735 19.3828 74.6413 19.8359 74.6413 20.3672V26H73.1959V20.4375C73.1959 19.9948 73.1204 19.6406 72.9694 19.375C72.8235 19.1094 72.6152 18.9167 72.3444 18.7969C72.0735 18.6719 71.7558 18.6094 71.3913 18.6094C70.9642 18.6094 70.6074 18.6849 70.3209 18.8359C70.0345 18.987 69.8053 19.1953 69.6334 19.4609C69.4616 19.7266 69.3366 20.0312 69.2584 20.375C69.1855 20.7135 69.1491 21.0729 69.1491 21.4531ZM74.6256 20.6562L73.6569 20.9531C73.6621 20.4896 73.7376 20.0443 73.8834 19.6172C74.0345 19.1901 74.2506 18.8099 74.5319 18.4766C74.8183 18.1432 75.1699 17.8802 75.5866 17.6875C76.0032 17.4896 76.4798 17.3906 77.0163 17.3906C77.4694 17.3906 77.8704 17.4505 78.2194 17.5703C78.5735 17.6901 78.8704 17.875 79.11 18.125C79.3548 18.3698 79.5397 18.6849 79.6647 19.0703C79.7897 19.4557 79.8522 19.9141 79.8522 20.4453V26H78.3991V20.4297C78.3991 19.9557 78.3235 19.5885 78.1725 19.3281C78.0267 19.0625 77.8183 18.8776 77.5475 18.7734C77.2819 18.6641 76.9642 18.6094 76.5944 18.6094C76.2767 18.6094 75.9954 18.6641 75.7506 18.7734C75.5058 18.8828 75.3001 19.0339 75.1334 19.2266C74.9668 19.4141 74.8392 19.6302 74.7506 19.875C74.6673 20.1198 74.6256 20.3802 74.6256 20.6562ZM85.2275 26.1562C84.639 26.1562 84.1051 26.0573 83.6259 25.8594C83.152 25.6562 82.7431 25.3724 82.3994 25.0078C82.0608 24.6432 81.8004 24.2109 81.6181 23.7109C81.4358 23.2109 81.3447 22.6641 81.3447 22.0703V21.7422C81.3447 21.0547 81.4463 20.4427 81.6494 19.9062C81.8525 19.3646 82.1285 18.9062 82.4775 18.5312C82.8265 18.1562 83.2223 17.8724 83.665 17.6797C84.1077 17.487 84.566 17.3906 85.04 17.3906C85.6442 17.3906 86.165 17.4948 86.6025 17.7031C87.0452 17.9115 87.4072 18.2031 87.6884 18.5781C87.9697 18.9479 88.178 19.3854 88.3134 19.8906C88.4489 20.3906 88.5166 20.9375 88.5166 21.5312V22.1797H82.2041V21H87.0713V20.8906C87.0504 20.5156 86.9723 20.151 86.8369 19.7969C86.7067 19.4427 86.4983 19.151 86.2119 18.9219C85.9254 18.6927 85.5348 18.5781 85.04 18.5781C84.7119 18.5781 84.4098 18.6484 84.1338 18.7891C83.8577 18.9245 83.6207 19.1276 83.4228 19.3984C83.2249 19.6693 83.0713 20 82.9619 20.3906C82.8525 20.7812 82.7978 21.2318 82.7978 21.7422V22.0703C82.7978 22.4714 82.8525 22.849 82.9619 23.2031C83.0765 23.5521 83.2405 23.8594 83.4541 24.125C83.6728 24.3906 83.9358 24.599 84.2431 24.75C84.5556 24.901 84.9098 24.9766 85.3056 24.9766C85.816 24.9766 86.2483 24.8724 86.6025 24.6641C86.9567 24.4557 87.2666 24.1771 87.5322 23.8281L88.4072 24.5234C88.2249 24.7995 87.9931 25.0625 87.7119 25.3125C87.4306 25.5625 87.0843 25.7656 86.6728 25.9219C86.2666 26.0781 85.7848 26.1562 85.2275 26.1562Z" fill="white"/>
<path d="M28.7499 31H32.8748C33.2543 31 33.5623 30.692 33.5623 30.3125V20.6875H36.3123C36.5904 20.6875 36.841 20.5201 36.9475 20.2629C37.0541 20.0061 36.9953 19.7105 36.7984 19.5139L26.4859 9.20135C26.2175 8.93288 25.7823 8.93288 25.5138 9.20135L15.2014 19.5139C15.0048 19.7105 14.946 20.0061 15.0522 20.2629C15.1588 20.5201 15.4094 20.6875 15.6875 20.6875H18.4374V30.3125C18.4374 30.692 18.7454 31 19.1249 31H23.2499C23.6294 31 23.9374 30.692 23.9374 30.3125V25.5H28.0624V30.3125C28.0624 30.692 28.3704 31 28.7499 31ZM23.2499 24.125C22.8704 24.125 22.5624 24.433 22.5624 24.8125V29.625H19.8124V20C19.8124 19.6205 19.5044 19.3125 19.1249 19.3125H17.3471L25.9999 10.6599L34.6527 19.3125H32.8748C32.4953 19.3125 32.1873 19.6205 32.1873 20V29.625H29.4374V24.8125C29.4374 24.433 29.1294 24.125 28.7499 24.125H23.2499Z" fill="white"/>
<rect x="23.75" y="15.75" width="4.5" height="4.5" rx="2.25" stroke="white" stroke-width="1.5"/>
</svg>
