<svg width="110" height="23" viewBox="0 0 110 23" fill="none" xmlns="http://www.w3.org/2000/svg">
<path d="M37.5312 6.63281L33.7656 17H32.2266L36.5625 5.625H37.5547L37.5312 6.63281ZM40.6875 17L36.9141 6.63281L36.8906 5.625H37.8828L42.2344 17H40.6875ZM40.4922 12.7891V14.0234H34.1016V12.7891H40.4922ZM44.7894 5V17H43.3363V5H44.7894ZM48.36 5V17H46.9069V5H48.36ZM61.095 13.3828H62.595C62.5169 14.1016 62.3111 14.7448 61.9778 15.3125C61.6445 15.8802 61.1731 16.3307 60.5637 16.6641C59.9544 16.9922 59.194 17.1562 58.2825 17.1562C57.6158 17.1562 57.0091 17.0312 56.4622 16.7812C55.9205 16.5312 55.4544 16.1771 55.0637 15.7188C54.6731 15.2552 54.371 14.7005 54.1575 14.0547C53.9492 13.4036 53.845 12.6797 53.845 11.8828V10.75C53.845 9.95312 53.9492 9.23177 54.1575 8.58594C54.371 7.9349 54.6757 7.3776 55.0716 6.91406C55.4726 6.45052 55.9544 6.09375 56.5169 5.84375C57.0794 5.59375 57.7122 5.46875 58.4153 5.46875C59.2747 5.46875 60.0012 5.63021 60.595 5.95312C61.1887 6.27604 61.6497 6.72396 61.9778 7.29688C62.3111 7.86458 62.5169 8.52344 62.595 9.27344H61.095C61.0221 8.74219 60.8867 8.28646 60.6887 7.90625C60.4908 7.52083 60.2096 7.22396 59.845 7.01562C59.4804 6.80729 59.0039 6.70312 58.4153 6.70312C57.9101 6.70312 57.4648 6.79948 57.0794 6.99219C56.6992 7.1849 56.3789 7.45833 56.1184 7.8125C55.8632 8.16667 55.6705 8.59115 55.5403 9.08594C55.4101 9.58073 55.345 10.1302 55.345 10.7344V11.8828C55.345 12.4401 55.4023 12.9635 55.5169 13.4531C55.6367 13.9427 55.8164 14.3724 56.0559 14.7422C56.2955 15.112 56.6002 15.4036 56.97 15.6172C57.3398 15.8255 57.7773 15.9297 58.2825 15.9297C58.9231 15.9297 59.4335 15.8281 59.8137 15.625C60.194 15.4219 60.4804 15.1302 60.6731 14.75C60.871 14.3698 61.0117 13.9141 61.095 13.3828ZM63.7281 12.8672V12.6875C63.7281 12.0781 63.8167 11.513 63.9937 10.9922C64.1708 10.4661 64.426 10.0104 64.7594 9.625C65.0927 9.23438 65.4964 8.93229 65.9703 8.71875C66.4443 8.5 66.9755 8.39062 67.5641 8.39062C68.1578 8.39062 68.6917 8.5 69.1656 8.71875C69.6448 8.93229 70.051 9.23438 70.3844 9.625C70.7229 10.0104 70.9807 10.4661 71.1578 10.9922C71.3349 11.513 71.4234 12.0781 71.4234 12.6875V12.8672C71.4234 13.4766 71.3349 14.0417 71.1578 14.5625C70.9807 15.0833 70.7229 15.5391 70.3844 15.9297C70.051 16.3151 69.6474 16.6172 69.1734 16.8359C68.7047 17.0495 68.1734 17.1562 67.5797 17.1562C66.9859 17.1562 66.4521 17.0495 65.9781 16.8359C65.5042 16.6172 65.0979 16.3151 64.7594 15.9297C64.426 15.5391 64.1708 15.0833 63.9937 14.5625C63.8167 14.0417 63.7281 13.4766 63.7281 12.8672ZM65.1734 12.6875V12.8672C65.1734 13.2891 65.2229 13.6875 65.3219 14.0625C65.4208 14.4323 65.5693 14.7604 65.7672 15.0469C65.9703 15.3333 66.2229 15.5599 66.525 15.7266C66.8271 15.888 67.1786 15.9688 67.5797 15.9688C67.9755 15.9688 68.3219 15.888 68.6187 15.7266C68.9208 15.5599 69.1708 15.3333 69.3687 15.0469C69.5667 14.7604 69.7151 14.4323 69.8141 14.0625C69.9182 13.6875 69.9703 13.2891 69.9703 12.8672V12.6875C69.9703 12.2708 69.9182 11.8776 69.8141 11.5078C69.7151 11.1328 69.5641 10.8021 69.3609 10.5156C69.163 10.224 68.913 9.99479 68.6109 9.82812C68.3141 9.66146 67.9651 9.57812 67.5641 9.57812C67.1682 9.57812 66.8193 9.66146 66.5172 9.82812C66.2203 9.99479 65.9703 10.224 65.7672 10.5156C65.5693 10.8021 65.4208 11.1328 65.3219 11.5078C65.2229 11.8776 65.1734 12.2708 65.1734 12.6875ZM78.0878 15.0469V8.54688H79.5409V17H78.1581L78.0878 15.0469ZM78.3613 13.2656L78.9628 13.25C78.9628 13.8125 78.9029 14.3333 78.7831 14.8125C78.6685 15.2865 78.481 15.6979 78.2206 16.0469C77.9602 16.3958 77.6191 16.6693 77.1972 16.8672C76.7753 17.0599 76.2623 17.1562 75.6581 17.1562C75.2467 17.1562 74.8691 17.0964 74.5253 16.9766C74.1868 16.8568 73.8951 16.6719 73.6503 16.4219C73.4055 16.1719 73.2154 15.8464 73.08 15.4453C72.9498 15.0443 72.8847 14.5625 72.8847 14V8.54688H74.33V14.0156C74.33 14.3958 74.3717 14.7109 74.455 14.9609C74.5435 15.2057 74.6607 15.401 74.8066 15.5469C74.9576 15.6875 75.1243 15.7865 75.3066 15.8438C75.4941 15.901 75.6868 15.9297 75.8847 15.9297C76.4993 15.9297 76.9863 15.8125 77.3456 15.5781C77.705 15.3385 77.9628 15.0182 78.1191 14.6172C78.2805 14.2109 78.3613 13.7604 78.3613 13.2656ZM82.8694 9.875V17H81.4241V8.54688H82.8303L82.8694 9.875ZM85.51 8.5L85.5022 9.84375C85.3824 9.81771 85.2678 9.80208 85.1584 9.79688C85.0543 9.78646 84.9345 9.78125 84.7991 9.78125C84.4657 9.78125 84.1715 9.83333 83.9162 9.9375C83.661 10.0417 83.4449 10.1875 83.2678 10.375C83.0907 10.5625 82.9501 10.7865 82.8459 11.0469C82.747 11.3021 82.6819 11.5833 82.6506 11.8906L82.2444 12.125C82.2444 11.6146 82.2939 11.1354 82.3928 10.6875C82.497 10.2396 82.6558 9.84375 82.8694 9.5C83.0829 9.15104 83.3537 8.88021 83.6819 8.6875C84.0152 8.48958 84.411 8.39062 84.8694 8.39062C84.9735 8.39062 85.0933 8.40365 85.2287 8.42969C85.3642 8.45052 85.4579 8.47396 85.51 8.5ZM91.4478 14.7578C91.4478 14.5495 91.4009 14.3568 91.3072 14.1797C91.2186 13.9974 91.0337 13.8333 90.7525 13.6875C90.4765 13.5365 90.0598 13.4062 89.5025 13.2969C89.0337 13.1979 88.6093 13.0807 88.2291 12.9453C87.8541 12.8099 87.5337 12.6458 87.2681 12.4531C87.0077 12.2604 86.8072 12.0339 86.6666 11.7734C86.5259 11.513 86.4556 11.2083 86.4556 10.8594C86.4556 10.526 86.5285 10.2109 86.6744 9.91406C86.8254 9.61719 87.0364 9.35417 87.3072 9.125C87.5832 8.89583 87.914 8.71615 88.2994 8.58594C88.6848 8.45573 89.1145 8.39062 89.5884 8.39062C90.2655 8.39062 90.8436 8.51042 91.3228 8.75C91.802 8.98958 92.1692 9.3099 92.4244 9.71094C92.6796 10.1068 92.8072 10.5469 92.8072 11.0312H91.3619C91.3619 10.7969 91.2916 10.5703 91.1509 10.3516C91.0155 10.1276 90.815 9.94271 90.5494 9.79688C90.289 9.65104 89.9686 9.57812 89.5884 9.57812C89.1874 9.57812 88.8619 9.64062 88.6119 9.76562C88.3671 9.88542 88.1874 10.0391 88.0728 10.2266C87.9634 10.4141 87.9087 10.612 87.9087 10.8203C87.9087 10.9766 87.9348 11.1172 87.9869 11.2422C88.0442 11.362 88.1431 11.474 88.2837 11.5781C88.4244 11.6771 88.6223 11.7708 88.8775 11.8594C89.1327 11.9479 89.4582 12.0365 89.8541 12.125C90.5468 12.2812 91.1171 12.4688 91.565 12.6875C92.0129 12.9062 92.3462 13.1745 92.565 13.4922C92.7837 13.8099 92.8931 14.1953 92.8931 14.6484C92.8931 15.0182 92.815 15.3568 92.6587 15.6641C92.5077 15.9714 92.2864 16.237 91.9947 16.4609C91.7082 16.6797 91.3645 16.8516 90.9634 16.9766C90.5676 17.0964 90.1223 17.1562 89.6275 17.1562C88.8827 17.1562 88.2525 17.0234 87.7369 16.7578C87.2212 16.4922 86.8306 16.1484 86.565 15.7266C86.2994 15.3047 86.1666 14.8594 86.1666 14.3906H87.6197C87.6405 14.7865 87.7551 15.1016 87.9634 15.3359C88.1718 15.5651 88.427 15.7292 88.7291 15.8281C89.0311 15.9219 89.3306 15.9688 89.6275 15.9688C90.0233 15.9688 90.3541 15.9167 90.6197 15.8125C90.8905 15.7083 91.0962 15.5651 91.2369 15.3828C91.3775 15.2005 91.4478 14.9922 91.4478 14.7578ZM97.9794 17.1562C97.3908 17.1562 96.857 17.0573 96.3778 16.8594C95.9039 16.6562 95.495 16.3724 95.1512 16.0078C94.8127 15.6432 94.5523 15.2109 94.37 14.7109C94.1877 14.2109 94.0966 13.6641 94.0966 13.0703V12.7422C94.0966 12.0547 94.1981 11.4427 94.4012 10.9062C94.6044 10.3646 94.8804 9.90625 95.2294 9.53125C95.5783 9.15625 95.9742 8.8724 96.4169 8.67969C96.8596 8.48698 97.3179 8.39062 97.7919 8.39062C98.396 8.39062 98.9169 8.49479 99.3544 8.70312C99.7971 8.91146 100.159 9.20312 100.44 9.57812C100.722 9.94792 100.93 10.3854 101.065 10.8906C101.201 11.3906 101.268 11.9375 101.268 12.5312V13.1797H94.9559V12H99.8231V11.8906C99.8023 11.5156 99.7242 11.151 99.5887 10.7969C99.4585 10.4427 99.2502 10.151 98.9637 9.92188C98.6773 9.69271 98.2867 9.57812 97.7919 9.57812C97.4637 9.57812 97.1617 9.64844 96.8856 9.78906C96.6096 9.92448 96.3726 10.1276 96.1747 10.3984C95.9768 10.6693 95.8231 11 95.7137 11.3906C95.6044 11.7812 95.5497 12.2318 95.5497 12.7422V13.0703C95.5497 13.4714 95.6044 13.849 95.7137 14.2031C95.8283 14.5521 95.9924 14.8594 96.2059 15.125C96.4247 15.3906 96.6877 15.599 96.995 15.75C97.3075 15.901 97.6617 15.9766 98.0575 15.9766C98.5679 15.9766 99.0002 15.8724 99.3544 15.6641C99.7085 15.4557 100.018 15.1771 100.284 14.8281L101.159 15.5234C100.977 15.7995 100.745 16.0625 100.464 16.3125C100.182 16.5625 99.8361 16.7656 99.4247 16.9219C99.0184 17.0781 98.5367 17.1562 97.9794 17.1562ZM107.558 14.7578C107.558 14.5495 107.511 14.3568 107.417 14.1797C107.329 13.9974 107.144 13.8333 106.863 13.6875C106.586 13.5365 106.17 13.4062 105.613 13.2969C105.144 13.1979 104.719 13.0807 104.339 12.9453C103.964 12.8099 103.644 12.6458 103.378 12.4531C103.118 12.2604 102.917 12.0339 102.777 11.7734C102.636 11.513 102.566 11.2083 102.566 10.8594C102.566 10.526 102.639 10.2109 102.784 9.91406C102.935 9.61719 103.146 9.35417 103.417 9.125C103.693 8.89583 104.024 8.71615 104.409 8.58594C104.795 8.45573 105.224 8.39062 105.698 8.39062C106.376 8.39062 106.954 8.51042 107.433 8.75C107.912 8.98958 108.279 9.3099 108.534 9.71094C108.79 10.1068 108.917 10.5469 108.917 11.0312H107.472C107.472 10.7969 107.402 10.5703 107.261 10.3516C107.126 10.1276 106.925 9.94271 106.659 9.79688C106.399 9.65104 106.079 9.57812 105.698 9.57812C105.297 9.57812 104.972 9.64062 104.722 9.76562C104.477 9.88542 104.297 10.0391 104.183 10.2266C104.073 10.4141 104.019 10.612 104.019 10.8203C104.019 10.9766 104.045 11.1172 104.097 11.2422C104.154 11.362 104.253 11.474 104.394 11.5781C104.534 11.6771 104.732 11.7708 104.988 11.8594C105.243 11.9479 105.568 12.0365 105.964 12.125C106.657 12.2812 107.227 12.4688 107.675 12.6875C108.123 12.9062 108.456 13.1745 108.675 13.4922C108.894 13.8099 109.003 14.1953 109.003 14.6484C109.003 15.0182 108.925 15.3568 108.769 15.6641C108.618 15.9714 108.396 16.237 108.105 16.4609C107.818 16.6797 107.474 16.8516 107.073 16.9766C106.678 17.0964 106.232 17.1562 105.738 17.1562C104.993 17.1562 104.363 17.0234 103.847 16.7578C103.331 16.4922 102.941 16.1484 102.675 15.7266C102.409 15.3047 102.277 14.8594 102.277 14.3906H103.73C103.751 14.7865 103.865 15.1016 104.073 15.3359C104.282 15.5651 104.537 15.7292 104.839 15.8281C105.141 15.9219 105.441 15.9688 105.738 15.9688C106.133 15.9688 106.464 15.9167 106.73 15.8125C107.001 15.7083 107.206 15.5651 107.347 15.3828C107.488 15.2005 107.558 14.9922 107.558 14.7578Z" fill="white"/>
<path d="M11.5861 12.9237C12.0038 13.8957 13.0366 13.5132 13.2207 13.0632L14.8105 10.3003L17.6621 8.75682C18.1111 8.59033 18.5198 7.52835 17.5228 7.06936L10.0009 4.49542C9.06235 4.32443 8.67166 5.10291 8.87823 5.7104L11.5861 12.9237ZM15.044 8.19434L13.7821 8.85132C13.5935 8.89632 13.5037 9.04032 13.4094 9.17981L12.6639 10.4893L11.3077 6.88487L15.044 8.19434Z" fill="white"/>
<path d="M21.0704 0H0.934066C0.422126 0 0 0.42299 0 0.935979V15.9161C0 16.4291 0.422126 16.8521 0.934066 16.8521H7.0549V20.128H5.6538C5.14186 20.128 4.71973 20.551 4.71973 21.064C4.71973 21.577 5.14186 22 5.6538 22H16.3057C16.8177 22 17.2398 21.577 17.2398 21.064C17.2398 20.551 16.8177 20.128 16.3057 20.128H14.9496V16.8521H21.021C21.5329 16.8521 21.9551 16.4291 22 15.9611V0.935979C22.0044 0.42299 21.5823 0 21.0704 0ZM13.0814 20.1325H8.87812V16.8521H13.0814V20.1325ZM20.1363 15.0297H1.82323V1.82696H20.1363V15.0297Z" fill="white"/>
</svg>
